<svg width="71" height="83" viewBox="0 0 71 83" fill="none" xmlns="http://www.w3.org/2000/svg">
<path fill-rule="evenodd" clip-rule="evenodd" d="M9.62616 0L33.0314 21.5789V0.0497923H37.5875V21.6755L61.0976 0V24.6032H70.75V60.0909H61.1272V81.9988L37.5875 61.3036V82.2365H33.0314V61.6448L9.65269 82.25V60.0909H0V24.6032H9.62616V0ZM29.5967 29.1066H4.55607V55.5875H9.64697V47.2344L29.5967 29.1066ZM14.2085 49.2326V72.2009L33.0314 55.6112V32.1246L14.2085 49.2326ZM37.7186 55.3917V32.1025L56.5469 49.2115V60.0909H56.5711V71.9664L37.7186 55.3917ZM61.1272 55.5875H66.1939V29.1066H41.3399L61.1272 47.0467V55.5875ZM56.5415 24.6032V10.3589L41.0914 24.6032H56.5415ZM29.632 24.6032H14.1823V10.3589L29.632 24.6032Z" fill="#0a0a0a"/>
</svg>
