<svg width="32" height="32" viewBox="0 0 32 32" xmlns="http://www.w3.org/2000/svg">
<rect width="32" height="32" rx="6" fill="black"/>
<g transform="translate(4 4) scale(0.173)">
<path d="M138.878 100.104V123.552C138.878 131.844 132.142 138.57 123.832 138.57H4.14569C0.460605 138.57 -1.38657 134.121 1.21984 131.521L29.2747 103.532C31.4737 101.338 34.4597 100.104 37.5707 100.104H138.888H138.878Z" fill="white"/>
<path d="M138.879 47.1379V70.5811C138.879 78.8728 132.143 85.5986 123.829 85.5986H47.2427L82.3575 50.5654C84.5565 48.3712 87.5379 47.1379 90.6489 47.1379H138.884H138.879Z" fill="white"/>
<path d="M138.879 4.1366V17.6205C138.879 25.9122 132.143 32.638 123.829 32.638H100.325L131.815 1.21717C134.421 -1.38353 138.879 0.459594 138.879 4.1366Z" fill="white"/>
</g>
</svg>
