<svg width="96" height="96" viewBox="0 0 96 96" fill="none" xmlns="http://www.w3.org/2000/svg">
  <!-- Light-gray chip. -->
  <rect width="96" height="96" rx="24" fill="#ECECEC"/>
  <!-- Official duotone chat glyph — blue swapped for gray, dark parts kept. -->
  <g transform="translate(18.65 18) scale(0.3704)">
    <path d="M136.529 39.8975C148.664 39.8975 158.501 49.7347 158.501 61.8691V113.986C158.501 126.121 148.664 135.957 136.529 135.957H120.607C116.321 135.957 112.318 138.1 109.942 141.666L101.471 154.378C96.3984 161.99 85.213 161.99 80.1402 154.378L71.6698 141.666C69.293 138.1 65.2905 135.957 61.0043 135.957H45.0811C32.9468 135.957 23.1096 126.121 23.1094 113.986V61.8691C23.1094 49.7347 32.9467 39.8975 45.0811 39.8975H136.529Z" fill="#101010"/>
    <path d="M113.42 0C125.554 0 135.392 9.83728 135.392 21.9717V74.0879C135.392 86.2223 125.554 96.0596 113.42 96.0596H97.4956C93.2095 96.0596 89.207 98.2021 86.8302 101.769L78.3608 114.478C73.288 122.091 62.1027 122.091 57.0299 114.478L48.5605 101.769C46.1836 98.2021 42.1812 96.0596 37.895 96.0596H21.9717C9.83728 96.0596 0 86.2223 0 74.0879V21.9717C0 9.83728 9.83728 0 21.9717 0H113.42Z" fill="#C7C7C7"/>
  </g>
</svg>
