<svg width="154" height="159" viewBox="0 0 154 159" fill="none" xmlns="http://www.w3.org/2000/svg">
<!-- Dark back card (subtle stacked depth). -->
<path d="M131.959 23.1064C144.093 23.1067 153.93 32.9439 153.93 45.0781V136.526C153.93 148.661 144.093 158.497 131.959 158.497H41.1035C28.9694 158.497 19.1329 148.661 19.1328 136.526V45.0781C19.1328 32.9439 28.9693 23.1067 41.1035 23.1064H131.959Z" fill="#101010"/>
<!-- Light-gray front card. -->
<path d="M113.421 0C125.555 0.00024854 135.391 9.83658 135.392 21.9707V113.432C135.391 125.566 125.555 135.402 113.421 135.402H21.9717C9.83738 135.402 0.000166844 125.566 0 113.432V21.9707C0.000161834 9.83644 9.83738 0 21.9717 0H113.421Z" fill="#E0E0E0"/>
<!-- Original duotone chat-bubble glyph (dark back bubble + gray front bubble), scaled onto the card. -->
<g transform="translate(26.6 25.6) scale(0.52)">
<path d="M136.529 39.8975C148.664 39.8975 158.501 49.7347 158.501 61.8691V113.986C158.501 126.121 148.664 135.957 136.529 135.957H120.607C116.321 135.957 112.318 138.1 109.942 141.666L101.471 154.378C96.3984 161.99 85.213 161.99 80.1402 154.378L71.6698 141.666C69.293 138.1 65.2905 135.957 61.0043 135.957H45.0811C32.9468 135.957 23.1096 126.121 23.1094 113.986V61.8691C23.1094 49.7347 32.9467 39.8975 45.0811 39.8975H136.529Z" fill="#101010"/>
<path d="M113.42 0C125.554 0 135.392 9.83728 135.392 21.9717V74.0879C135.392 86.2223 125.554 96.0596 113.42 96.0596H97.4956C93.2095 96.0596 89.207 98.2021 86.8302 101.769L78.3608 114.478C73.288 122.091 62.1027 122.091 57.0299 114.478L48.5605 101.769C46.1836 98.2021 42.1812 96.0596 37.895 96.0596H21.9717C9.83728 96.0596 0 86.2223 0 74.0879V21.9717C0 9.83728 9.83728 0 21.9717 0H113.42Z" fill="#A3A3A3"/>
</g>
</svg>
