<svg width="154" height="159" viewBox="0 0 154 159" fill="none" xmlns="http://www.w3.org/2000/svg">
<!-- Dark back card (subtle stacked depth). -->
<path d="M131.959 23.1064C144.093 23.1067 153.93 32.9439 153.93 45.0781V136.526C153.93 148.661 144.093 158.497 131.959 158.497H41.1035C28.9694 158.497 19.1329 148.661 19.1328 136.526V45.0781C19.1328 32.9439 28.9693 23.1067 41.1035 23.1064H131.959Z" fill="#101010"/>
<!-- Light-gray front card. -->
<path d="M113.421 0C125.555 0.00024854 135.391 9.83658 135.392 21.9707V113.432C135.391 125.566 125.555 135.402 113.421 135.402H21.9717C9.83738 135.402 0.000166844 125.566 0 113.432V21.9707C0.000161834 9.83644 9.83738 0 21.9717 0H113.421Z" fill="#E0E0E0"/>
<!-- Checkmark glyph. -->
<path d="M106.502 33.4531C101.993 29.728 95.3171 30.3639 91.5918 34.873C84.8591 43.0222 68.1887 63.1675 55.8633 78.6025L42.4941 67.2393C38.0375 63.4514 31.3535 63.9937 27.5654 68.4502C23.7775 72.9067 24.3191 79.5908 28.7754 83.3789L50.5117 101.854C52.7132 103.726 55.5841 104.616 58.458 104.319C61.3322 104.023 63.9605 102.564 65.7334 100.282C77.4847 85.1581 99.7186 58.2913 107.921 48.3633C111.646 43.8541 111.011 37.1785 106.502 33.4531Z" fill="#101010"/>
</svg>
