<svg width="96" height="96" viewBox="0 0 96 96" fill="none" xmlns="http://www.w3.org/2000/svg">
  <!-- Light-gray chip. -->
  <rect width="96" height="96" rx="24" fill="#ECECEC"/>
  <!-- Official duotone checkbox glyph — blue swapped for gray, dark parts kept. -->
  <g transform="translate(18.1 18) scale(0.3785)">
    <path d="M136.01 23.1068C148.144 23.107 157.98 32.9442 157.98 45.0785V136.527C157.98 148.661 148.144 158.497 136.01 158.497H45.1553C33.021 158.497 23.1838 148.661 23.1836 136.527V45.0785C23.1836 32.9441 33.0209 23.1068 45.1553 23.1068H136.01Z" fill="#101010"/>
    <path d="M113.42 0C125.554 0 135.391 9.83641 135.392 21.9707V113.432C135.391 125.566 125.554 135.402 113.42 135.402H21.9717C9.8374 135.402 0.000190263 125.566 0 113.432V21.9707C0.000138416 9.83642 9.83736 0 21.9717 0H113.42ZM106.502 33.4531C101.993 29.728 95.3171 30.3639 91.5918 34.873C84.8591 43.0222 68.1887 63.1675 55.8633 78.6025L42.4941 67.2393C38.0375 63.4514 31.3535 63.9937 27.5654 68.4502C23.7775 72.9067 24.3191 79.5908 28.7754 83.3789L50.5117 101.854C52.7132 103.726 55.5841 104.616 58.458 104.319C61.3322 104.023 63.9605 102.564 65.7334 100.282C77.4847 85.1581 99.7186 58.2913 107.921 48.3633C111.646 43.8541 111.011 37.1785 106.502 33.4531Z" fill="#C7C7C7"/>
  </g>
</svg>
