<svg width="96" height="96" viewBox="0 0 96 96" fill="none" xmlns="http://www.w3.org/2000/svg">
  <!-- Light-gray chip. -->
  <rect width="96" height="96" rx="24" fill="#ECECEC"/>
  <!-- Official duotone contact glyph — blue swapped for gray, dark parts kept. -->
  <g transform="translate(18.87 18) scale(0.3785)">
    <path d="M131.959 23.1064C144.093 23.1067 153.93 32.9439 153.93 45.0781V136.526C153.93 148.661 144.093 158.497 131.959 158.497H41.1035C28.9694 158.497 19.1329 148.661 19.1328 136.526V45.0781C19.1328 32.9439 28.9693 23.1067 41.1035 23.1064H131.959Z" fill="#101010"/>
    <path d="M113.421 0C125.555 0.00024854 135.391 9.83658 135.392 21.9707V113.432C135.391 125.566 125.555 135.402 113.421 135.402H21.9717C9.83738 135.402 0.000166844 125.566 0 113.432V21.9707C0.000161834 9.83644 9.83738 0 21.9717 0H113.421ZM57.3154 78.0811C42.978 78.0811 31.3654 89.6939 31.3652 104.031C31.3652 106.886 33.7011 109.222 36.5557 109.222H98.8359C101.702 109.222 104.026 106.897 104.026 104.031C104.026 89.694 92.4134 78.0813 78.0762 78.0811H57.3154ZM67.6953 26.1807C56.232 26.1808 46.9358 35.4739 46.9355 46.9404C46.9355 58.4071 56.2449 67.701 67.6953 67.7012C79.1621 67.7012 88.4561 58.4072 88.4561 46.9404C88.4558 35.4738 79.162 26.1807 67.6953 26.1807Z" fill="#C7C7C7"/>
  </g>
</svg>
