<svg width="96" height="96" viewBox="0 0 96 96" fill="none" xmlns="http://www.w3.org/2000/svg">
  <!-- Light-gray chip. -->
  <rect width="96" height="96" rx="24" fill="#ECECEC"/>
  <!-- Folder back + tab (dark). -->
  <path d="M24 37a8 8 0 0 1 8-8h11.5a6 6 0 0 1 4.6 2.1l3.1 3.6a6 6 0 0 0 4.6 2.1H64a8 8 0 0 1 8 8v22a8 8 0 0 1-8 8H32a8 8 0 0 1-8-8z" fill="#1C1C1C"/>
  <!-- Folder front flap (lighter). -->
  <path d="M22.6 51.5A5 5 0 0 1 27.5 46h41a5 5 0 0 1 4.9 5.9l-3.4 18.5A6 6 0 0 1 64.1 75H31.9a6 6 0 0 1-5.9-4.9z" fill="#C7C7C7"/>
</svg>
