<svg width="96" height="96" viewBox="0 0 96 96" fill="none" xmlns="http://www.w3.org/2000/svg">
  <!-- Light-gray chip. -->
  <rect width="96" height="96" rx="24" fill="#ECECEC"/>
  <!-- Official duotone folder glyph — blue swapped for gray, dark parts kept. -->
  <g transform="translate(18.42 26.77) scale(0.2678)">
    <path d="M71.8488 0C66.0538 3.53704e-05 60.9795 3.88867 59.4728 9.48438L33.0334 107.679C30.8417 115.818 36.9693 123.821 45.3986 123.828L181.738 123.94C187.447 123.945 192.472 120.173 194.06 114.689L222.53 16.3818C224.904 8.18449 218.754 0.00010152 210.22 0H71.8488Z" fill="#101010"/>
    <path d="M34.9625 23.6375C30.3295 23.6376 26.8606 27.886 27.7867 32.4255L28.7311 37.0505H12.8219C4.53308 37.0507 -1.57544 44.8004 0.359989 52.8601L23.3688 148.676C24.7533 154.441 29.9119 158.505 35.8414 158.5L167.975 158.389C176.175 158.383 182.26 150.783 180.473 142.78L159.106 47.074C157.798 41.216 152.6 37.0505 146.597 37.0505H69.0905L67.5485 29.4968C66.8525 26.0868 63.852 23.6375 60.3717 23.6375H34.9625Z" fill="#C7C7C7"/>
  </g>
</svg>
