<svg width="154" height="159" viewBox="0 0 154 159" fill="none" xmlns="http://www.w3.org/2000/svg">
<!-- Dark back card (subtle stacked depth). -->
<path d="M131.959 23.1064C144.093 23.1067 153.93 32.9439 153.93 45.0781V136.526C153.93 148.661 144.093 158.497 131.959 158.497H41.1035C28.9694 158.497 19.1329 148.661 19.1328 136.526V45.0781C19.1328 32.9439 28.9693 23.1067 41.1035 23.1064H131.959Z" fill="#101010"/>
<!-- Light-gray front card. -->
<path d="M113.421 0C125.555 0.00024854 135.391 9.83658 135.392 21.9707V113.432C135.391 125.566 125.555 135.402 113.421 135.402H21.9717C9.83738 135.402 0.000166844 125.566 0 113.432V21.9707C0.000161834 9.83644 9.83738 0 21.9717 0H113.421Z" fill="#E0E0E0"/>
<!-- Original duotone folder glyph (dark back folder + gray front folder), scaled onto the card. -->
<g transform="translate(25.4 37.7) scale(0.38)">
<path d="M71.8488 0C66.0538 3.53704e-05 60.9795 3.88867 59.4728 9.48438L33.0334 107.679C30.8417 115.818 36.9693 123.821 45.3986 123.828L181.738 123.94C187.447 123.945 192.472 120.173 194.06 114.689L222.53 16.3818C224.904 8.18449 218.754 0.00010152 210.22 0H71.8488Z" fill="#101010"/>
<path d="M34.9625 23.6375C30.3295 23.6376 26.8606 27.886 27.7867 32.4255L28.7311 37.0505H12.8219C4.53308 37.0507 -1.57544 44.8004 0.359989 52.8601L23.3688 148.676C24.7533 154.441 29.9119 158.505 35.8414 158.5L167.975 158.389C176.175 158.383 182.26 150.783 180.473 142.78L159.106 47.074C157.798 41.216 152.6 37.0505 146.597 37.0505H69.0905L67.5485 29.4968C66.8525 26.0868 63.852 23.6375 60.3717 23.6375H34.9625Z" fill="#A3A3A3"/>
</g>
</svg>
