<svg width="21" height="21" viewBox="0 0 21 21" fill="none" xmlns="http://www.w3.org/2000/svg">
<path d="M10.9219 20.25C16.4447 20.25 20.9219 15.7728 20.9219 10.25C20.9219 4.72715 16.4447 0.25 10.9219 0.25C5.39903 0.25 0.921875 4.72715 0.921875 10.25C0.921875 15.7728 5.39903 20.25 10.9219 20.25Z" fill="#437E9B"/>
<path d="M10.9214 19.4073C15.9781 19.4073 20.0773 15.3081 20.0773 10.2515C20.0773 5.1949 15.9781 1.0957 10.9214 1.0957C5.86482 1.0957 1.76562 5.1949 1.76562 10.2515C1.76562 15.3081 5.86482 19.4073 10.9214 19.4073Z" fill="#224057"/>
<path d="M7.8564 7.40595C7.26945 7.42037 6.83099 7.59302 6.54491 7.95431C6.25651 8.29923 6.09437 8.80278 6.06982 9.45248L6.05774 10.9506C6.05408 11.2459 6.08336 11.5407 6.14504 11.8295C6.20146 12.1143 6.3261 12.3811 6.50828 12.6071C6.6708 12.8241 6.85905 12.9683 7.08276 13.0108C7.30261 13.0692 7.52915 13.0986 7.75662 13.0981H7.85835L10.4587 13.0841V14.5982H7.78118C7.36491 14.6008 6.94964 14.5573 6.54297 14.4685C6.14309 14.3812 5.76738 14.166 5.41817 13.8492C5.00248 13.4482 4.69699 12.9471 4.53112 12.3939C4.35807 11.8235 4.26623 11.2317 4.2583 10.6357V10.3029C4.25632 10.2593 4.26039 10.2156 4.27038 10.1731V10.0429C4.27038 10.0005 4.28246 9.95564 4.28246 9.91316C4.35768 8.52879 4.68234 7.51975 5.24474 6.87317C5.81922 6.23945 6.6821 5.90661 7.81898 5.90661L10.456 5.89258V7.40673L7.8564 7.40595Z" fill="white"/>
<path d="M14.0058 7.39311C14.7689 7.39311 15.2561 7.68152 15.4794 8.25794C15.7027 8.83437 15.8302 9.4981 15.8551 10.2616V10.6104C15.8568 10.6878 15.8527 10.7652 15.8426 10.8419V11.0594C15.8227 11.3418 15.7765 11.6216 15.7047 11.8954C15.639 12.1575 15.5195 12.403 15.3539 12.6164C15.1918 12.8335 14.9907 12.9777 14.7794 13.0202C14.5552 13.0779 14.3246 13.1074 14.0931 13.1079H14.0058L11.3945 13.0939V14.608H14.0837C14.4939 14.6097 14.903 14.566 15.3036 14.4778C15.7035 14.3905 16.0792 14.1754 16.4284 13.8585C16.8482 13.4609 17.1544 12.9585 17.3155 12.4032C17.4885 11.8329 17.5804 11.2411 17.5883 10.6451V10.3123C17.5903 10.2685 17.5862 10.2247 17.5762 10.1821V9.92253C17.4889 8.53817 17.1763 7.52913 16.6019 6.88255C16.0274 6.24921 15.1766 5.91637 14.0276 5.91637L11.3906 5.90234V7.40051H14.0019L14.0058 7.39311Z" fill="#437E9B"/>
<path d="M10.7694 11.2487C11.2691 11.3562 11.7418 11.0253 11.8412 10.514C11.9429 9.98825 11.6304 9.48665 11.1331 9.37908C10.6478 9.27346 10.1606 9.6024 10.057 10.1282C9.95759 10.6418 10.2822 11.1454 10.7694 11.2487Z" fill="#437E9B"/>
<path d="M7.03125 10.2828L9.73723 9.7793L9.69825 9.96403C9.65608 10.1595 9.65741 10.3619 9.70215 10.5568L9.74502 10.7396L7.03125 10.2828Z" fill="white"/>
</svg>
